<svg width="12" height="17" viewBox="0 0 12 17" fill="none" xmlns="http://www.w3.org/2000/svg">
<g id="Group">
<path id="Vector" d="M11.6241 5.95882C10.641 6.61765 10.0337 7.74706 10.0337 9.00196C10.0337 10.4137 10.8145 11.7 12 12.2333C11.7687 13.049 11.4217 13.802 10.988 14.4922C10.3518 15.4647 9.68675 16.4686 8.70361 16.4686C7.72048 16.4686 7.43133 15.8412 6.2747 15.8412C5.14699 15.8412 4.74217 16.5 3.81687 16.5C2.89157 16.5 2.25542 15.5902 1.53253 14.4608C0.578313 12.8922 0.0289157 11.0725 0 9.15882C0 6.05294 1.8506 4.3902 3.7012 4.3902C4.68434 4.3902 5.49398 5.08039 6.1012 5.08039C6.67952 5.08039 7.60482 4.35882 8.70361 4.35882C9.86024 4.32745 10.959 4.92353 11.6241 5.95882ZM8.18313 3.04118C8.6747 2.41373 8.93494 1.62941 8.96385 0.813726C8.96385 0.719608 8.96385 0.594118 8.93494 0.5C8.09639 0.594118 7.31566 1.03333 6.76626 1.72353C6.2747 2.31961 5.98554 3.07255 5.95663 3.88824C5.95663 3.98235 5.95663 4.07647 5.98554 4.17059C6.04337 4.17059 6.13012 4.20196 6.18795 4.20196C6.96867 4.13922 7.69157 3.7 8.18313 3.04118Z" fill="black"/>
</g>
</svg>
